<svg xmlns="http://www.w3.org/2000/svg" xmlns:xlink="http://www.w3.org/1999/xlink" viewBox="0 0 234.03 190.04"><defs><style>.cls-1{fill:url(#Безымянный_градиент_47);}.cls-2{fill:url(#Безымянный_градиент_47-2);}.cls-3{fill:url(#Безымянный_градиент_47-3);}.cls-4{fill:url(#Безымянный_градиент_47-4);}.cls-5{fill:url(#Безымянный_градиент_47-5);}.cls-6{fill:url(#Безымянный_градиент_47-6);}.cls-7{fill:url(#Безымянный_градиент_47-7);}.cls-8{fill:url(#Безымянный_градиент_47-8);}.cls-9{fill:url(#Безымянный_градиент_47-9);}.cls-10{fill:url(#Безымянный_градиент_47-10);}.cls-11{fill:url(#Безымянный_градиент_47-11);}.cls-12{fill:url(#Безымянный_градиент_47-12);}.cls-13{fill:url(#Безымянный_градиент_47-13);}.cls-14{fill:url(#Безымянный_градиент_47-14);}.cls-15{fill:url(#Безымянный_градиент_47-15);}.cls-16{fill:url(#Безымянный_градиент_47-16);}.cls-17{fill:url(#Безымянный_градиент_47-17);}.cls-18{fill:url(#Безымянный_градиент_47-18);}.cls-19{fill:url(#Безымянный_градиент_47-19);}.cls-20{fill:url(#Безымянный_градиент_47-20);}.cls-21{fill:url(#Безымянный_градиент_47-21);}.cls-22{fill:url(#Безымянный_градиент_47-22);}.cls-23{fill:url(#Безымянный_градиент_47-23);}.cls-24{fill:url(#Безымянный_градиент_47-24);}.cls-25{fill:url(#Безымянный_градиент_47-25);}.cls-26{fill:url(#Безымянный_градиент_47-26);}.cls-27{fill:url(#Безымянный_градиент_47-27);}.cls-28{fill:url(#Безымянный_градиент_47-28);}.cls-29{fill:url(#Безымянный_градиент_47-29);}.cls-30{fill:url(#Безымянный_градиент_47-30);}.cls-31{fill:url(#Безымянный_градиент_47-31);}.cls-32{fill:url(#Безымянный_градиент_47-32);}.cls-33{fill:url(#Безымянный_градиент_47-33);}.cls-34{fill:url(#Безымянный_градиент_47-34);}.cls-35{fill:url(#Безымянный_градиент_47-35);}.cls-36{fill:url(#Безымянный_градиент_47-36);}.cls-37{fill:url(#Безымянный_градиент_47-37);}.cls-38{fill:url(#Безымянный_градиент_47-38);}.cls-39{fill:url(#Безымянный_градиент_47-39);}.cls-40{fill:url(#Безымянный_градиент_47-40);}.cls-41{fill:url(#Безымянный_градиент_47-41);}.cls-42{fill:url(#Безымянный_градиент_47-42);}.cls-43{fill:url(#Безымянный_градиент_47-43);}.cls-44{fill:url(#Безымянный_градиент_47-44);}.cls-45{fill:url(#Безымянный_градиент_47-45);}.cls-46{fill:url(#Безымянный_градиент_47-46);}.cls-47{fill:url(#Безымянный_градиент_47-47);}</style><linearGradient id="Безымянный_градиент_47" x1="-2.25" y1="29.34" x2="232.13" y2="-1.3" gradientTransform="matrix(1, 0, 0, -1, 0, 106.38)" gradientUnits="userSpaceOnUse"><stop offset="0.01" stop-color="#f6e56f"/><stop offset="0.02" stop-color="#f4e16b"/><stop offset="0.11" stop-color="#e5c952"/><stop offset="0.19" stop-color="#dcba42"/><stop offset="0.26" stop-color="#d9b53d"/><stop offset="0.3" stop-color="#dbb841"/><stop offset="0.35" stop-color="#e0c14e"/><stop offset="0.4" stop-color="#e9d063"/><stop offset="0.44" stop-color="#f6e580"/><stop offset="0.47" stop-color="#fff596"/><stop offset="0.49" stop-color="#f4e587"/><stop offset="0.53" stop-color="#e1c86b"/><stop offset="0.57" stop-color="#d3b156"/><stop offset="0.61" stop-color="#c8a147"/><stop offset="0.65" stop-color="#c2983e"/><stop offset="0.72" stop-color="#c0953b"/><stop offset="1" stop-color="#f1d46c"/></linearGradient><linearGradient id="Безымянный_градиент_47-2" x1="-2.35" y1="28.65" x2="232.03" y2="-1.99" xlink:href="#Безымянный_градиент_47"/><linearGradient id="Безымянный_градиент_47-3" x1="-2.41" y1="28.12" x2="231.97" y2="-2.52" xlink:href="#Безымянный_градиент_47"/><linearGradient id="Безымянный_градиент_47-4" x1="-2.48" y1="27.55" x2="231.9" y2="-3.08" xlink:href="#Безымянный_градиент_47"/><linearGradient id="Безымянный_градиент_47-5" x1="-2.54" y1="27.15" x2="231.85" y2="-3.49" xlink:href="#Безымянный_градиент_47"/><linearGradient id="Безымянный_градиент_47-6" x1="-1.87" y1="32.26" x2="232.51" y2="1.62" xlink:href="#Безымянный_градиент_47"/><linearGradient id="Безымянный_градиент_47-7" x1="-2" y1="31.31" x2="232.38" y2="0.67" xlink:href="#Безымянный_градиент_47"/><linearGradient id="Безымянный_градиент_47-8" x1="-1.92" y1="31.83" x2="232.46" y2="1.19" xlink:href="#Безымянный_градиент_47"/><linearGradient id="Безымянный_градиент_47-9" x1="-2.06" y1="30.77" x2="232.32" y2="0.13" xlink:href="#Безымянный_градиент_47"/><linearGradient id="Безымянный_градиент_47-10" x1="-2.16" y1="30.12" x2="232.22" y2="-0.52" xlink:href="#Безымянный_градиент_47"/><linearGradient id="Безымянный_градиент_47-11" x1="3.31" y1="71.86" x2="237.69" y2="41.22" xlink:href="#Безымянный_градиент_47"/><linearGradient id="Безымянный_градиент_47-12" x1="3.21" y1="71.18" x2="237.59" y2="40.54" xlink:href="#Безымянный_градиент_47"/><linearGradient id="Безымянный_градиент_47-13" x1="3.15" y1="70.64" x2="237.53" y2="40" xlink:href="#Безымянный_градиент_47"/><linearGradient id="Безымянный_градиент_47-14" x1="3.07" y1="70.08" x2="237.45" y2="39.45" xlink:href="#Безымянный_градиент_47"/><linearGradient id="Безымянный_градиент_47-15" x1="3.02" y1="69.68" x2="237.41" y2="39.04" xlink:href="#Безымянный_градиент_47"/><linearGradient id="Безымянный_градиент_47-16" x1="3.69" y1="74.78" x2="238.07" y2="44.14" xlink:href="#Безымянный_градиент_47"/><linearGradient id="Безымянный_градиент_47-17" x1="3.56" y1="73.84" x2="237.94" y2="43.2" xlink:href="#Безымянный_градиент_47"/><linearGradient id="Безымянный_градиент_47-18" x1="3.64" y1="74.36" x2="238.02" y2="43.72" xlink:href="#Безымянный_градиент_47"/><linearGradient id="Безымянный_градиент_47-19" x1="3.49" y1="73.3" x2="237.87" y2="42.66" xlink:href="#Безымянный_градиент_47"/><linearGradient id="Безымянный_градиент_47-20" x1="3.4" y1="72.65" x2="237.78" y2="42.01" xlink:href="#Безымянный_градиент_47"/><linearGradient id="Безымянный_градиент_47-21" x1="-13.22" y1="-54.48" x2="221.17" y2="-85.12" xlink:href="#Безымянный_градиент_47"/><linearGradient id="Безымянный_градиент_47-22" x1="-8.76" y1="-20.4" x2="225.62" y2="-51.04" xlink:href="#Безымянный_градиент_47"/><linearGradient id="Безымянный_градиент_47-23" x1="7.82" y1="106.36" x2="242.2" y2="75.72" xlink:href="#Безымянный_градиент_47"/><linearGradient id="Безымянный_градиент_47-24" x1="-6.75" y1="-5.01" x2="227.64" y2="-35.65" xlink:href="#Безымянный_градиент_47"/><linearGradient id="Безымянный_градиент_47-25" x1="-11.22" y1="-39.3" x2="223.16" y2="-69.94" xlink:href="#Безымянный_градиент_47"/><linearGradient id="Безымянный_градиент_47-26" x1="-2.95" y1="23.98" x2="231.43" y2="-6.65" xlink:href="#Безымянный_градиент_47"/><linearGradient id="Безымянный_градиент_47-27" x1="0.74" y1="52.31" x2="235.13" y2="21.67" xlink:href="#Безымянный_градиент_47"/><linearGradient id="Безымянный_градиент_47-28" x1="3.76" y1="75.37" x2="238.14" y2="44.73" xlink:href="#Безымянный_градиент_47"/><linearGradient id="Безымянный_градиент_47-29" x1="7.99" y1="107.73" x2="242.37" y2="77.09" xlink:href="#Безымянный_градиент_47"/><linearGradient id="Безымянный_градиент_47-30" x1="6.26" y1="94.42" x2="240.64" y2="63.79" xlink:href="#Безымянный_градиент_47"/><linearGradient id="Безымянный_градиент_47-31" x1="-6.27" y1="-1.4" x2="228.11" y2="-32.04" xlink:href="#Безымянный_градиент_47"/><linearGradient id="Безымянный_градиент_47-32" x1="-3.87" y1="17.02" x2="230.52" y2="-13.62" xlink:href="#Безымянный_градиент_47"/><linearGradient id="Безымянный_градиент_47-33" x1="-9.08" y1="-22.9" x2="225.3" y2="-53.54" xlink:href="#Безымянный_градиент_47"/><linearGradient id="Безымянный_градиент_47-34" x1="0.5" y1="50.42" x2="234.88" y2="19.78" xlink:href="#Безымянный_градиент_47"/><linearGradient id="Безымянный_градиент_47-35" x1="4.22" y1="78.9" x2="238.6" y2="48.26" xlink:href="#Безымянный_градиент_47"/><linearGradient id="Безымянный_градиент_47-36" x1="6.89" y1="99.36" x2="241.28" y2="68.72" xlink:href="#Безымянный_градиент_47"/><linearGradient id="Безымянный_градиент_47-37" x1="8.79" y1="113.81" x2="243.18" y2="83.17" xlink:href="#Безымянный_градиент_47"/><linearGradient id="Безымянный_градиент_47-38" x1="8.46" y1="111.25" x2="242.84" y2="80.61" xlink:href="#Безымянный_градиент_47"/><linearGradient id="Безымянный_градиент_47-39" x1="-6.19" y1="-0.75" x2="228.19" y2="-31.39" xlink:href="#Безымянный_градиент_47"/><linearGradient id="Безымянный_градиент_47-40" x1="-7.22" y1="-8.58" x2="227.17" y2="-39.22" xlink:href="#Безымянный_градиент_47"/><linearGradient id="Безымянный_градиент_47-41" x1="-8.28" y1="-16.69" x2="226.11" y2="-47.33" xlink:href="#Безымянный_градиент_47"/><linearGradient id="Безымянный_градиент_47-42" x1="4.22" y1="78.93" x2="238.61" y2="48.29" xlink:href="#Безымянный_градиент_47"/><linearGradient id="Безымянный_градиент_47-43" x1="4.97" y1="84.54" x2="239.35" y2="53.9" xlink:href="#Безымянный_градиент_47"/><linearGradient id="Безымянный_градиент_47-44" x1="5.69" y1="90.14" x2="240.07" y2="59.5" xlink:href="#Безымянный_градиент_47"/><linearGradient id="Безымянный_градиент_47-45" x1="2.14" y1="62.99" x2="236.52" y2="32.35" xlink:href="#Безымянный_градиент_47"/><linearGradient id="Безымянный_градиент_47-46" x1="1.99" y1="61.82" x2="236.37" y2="31.18" xlink:href="#Безымянный_градиент_47"/><linearGradient id="Безымянный_градиент_47-47" x1="2.03" y1="62.18" x2="236.42" y2="31.54" xlink:href="#Безымянный_градиент_47"/></defs><title>atb</title><g id="Слой_2" data-name="Слой 2"><g id="Слой_1-2" data-name="Слой 1"><rect class="cls-1" x="111.95" y="65.82" width="4.44" height="52.89"/><rect class="cls-2" x="107.27" y="65.82" width="3.15" height="52.89"/><rect class="cls-3" x="103.1" y="65.82" width="3.15" height="52.89"/><rect class="cls-4" x="98.76" y="65.82" width="3.15" height="52.89"/><rect class="cls-5" x="96.68" y="65.82" width="1.02" height="52.89"/><rect class="cls-6" x="136.38" y="65.82" width="1.02" height="52.89"/><rect class="cls-7" x="127.95" y="65.82" width="3.15" height="52.89"/><rect class="cls-8" x="132.04" y="65.82" width="3.15" height="52.89"/><rect class="cls-9" x="123.78" y="65.82" width="3.15" height="52.89"/><rect class="cls-10" x="118.05" y="65.82" width="4.44" height="52.89"/><rect class="cls-11" x="111.95" y="45.52" width="4.44" height="6.98"/><rect class="cls-12" x="107.27" y="45.52" width="3.15" height="6.98"/><rect class="cls-13" x="103.1" y="45.52" width="3.15" height="6.98"/><rect class="cls-14" x="98.76" y="45.52" width="3.15" height="6.98"/><rect class="cls-15" x="96.68" y="45.52" width="1.02" height="6.98"/><rect class="cls-16" x="136.38" y="45.52" width="1.02" height="6.98"/><rect class="cls-17" x="127.95" y="45.52" width="3.15" height="6.98"/><rect class="cls-18" x="132.04" y="45.52" width="3.15" height="6.98"/><rect class="cls-19" x="123.78" y="45.52" width="3.15" height="6.98"/><rect class="cls-20" x="118.05" y="45.52" width="4.44" height="6.98"/><path class="cls-21" d="M148.87,168.7a49.53,49.53,0,0,0-24.26-4.78c-3.6.22-7.34,1.53-10.74.88a45.18,45.18,0,0,0-25.93,2.39c-2.78,1.11-5.6,2.13-8.3,3.4-11.3,5.33-22.68,7.24-34.49.89a4.55,4.55,0,0,0,1.37,2.15c13.19,11.15,29.52,12,43.79,2.26,3.44-2.35,6.73-5,10.4-6.88,2.61-1.36,5.74-1.72,8.63-2.52l.08.81L85.17,184.43,88.84,190c7.45-6.29,13.77-12.21,20.7-17.29s7.48-5.05,14.38.28c6.68,5.16,12.85,11,19.43,16.69l5.42-4.58-26.33-18.42c2.11.24,4,0,5.38.71a156.45,156.45,0,0,1,13.76,7.91c8.85,5.76,18.26,8.91,28.82,6.47,6.63-1.54,12.67-4.39,17-10.37C173.76,179.53,161.31,174.52,148.87,168.7Z"/><path class="cls-22" d="M58,157.85c-2.44-4.06-5.46-8.2-7.56-12.78-3-6.61-5.11-13.68-8.18-20.27-2-4.18-5-7.85-7.51-11.75-.56-.76-2.81-4.23-2.81-4.23a48.5,48.5,0,0,0,1.47,5c5.47,12,2.18,26.91,13.87,36.62-6.46-3.52-12.4-7.32-18.67-10.48-8.11-4.08-16-8.24-20.39-16.79C12.44,143.5,36.5,159.68,58,157.85Z"/><path class="cls-23" d="M61.91,1.19c16.53,7.9,33.71,16.26,51.53,24.75a.26.26,0,0,0,.34-.14.2.2,0,0,0,0-.17C111,17,108.19,9.21,105.46,2.13,105,1,103.72.23,101.71.23,88.55.23,75.37,0,62.2,0,61.21,0,61.17.86,61.91,1.19Z"/><path class="cls-24" d="M35.57,140.68l2.66,2s-1.23-2.79-1.56-3.39c-8.18-15.31-4.2-33.24-10.47-49-.67,11.62-5.95,22.94-1.53,34.88C17.94,113.17,4.3,106.91.24,93.22.12,103.35,1.7,113,9.32,119.89,17.61,127.31,26.78,133.78,35.57,140.68Z"/><path class="cls-25" d="M59.21,170.07c9.85-.95,19.56-3.45,29.33-5.26.79-.13,4.8-.87,4.85-1.11l-4.51-.34c-17.8-1.21-24.95-18.08-38.51-25.68,6.07,9.2,7.94,21.93,21.31,25.15-15.24-3.48-32.28,1.43-45.6-10.58a5.61,5.61,0,0,0,1,2.88C35.62,164.81,45.92,171.35,59.21,170.07Z"/><path class="cls-26" d="M28.44,63.89c.22-1,.62-3.61.35-3.68s-1.51,1.94-2.07,3.24c-4,10.84-12.89,19.68-12.67,32.41C12.47,82.71,1.45,72.55,3.36,58.52c-8,14-1.11,37.17,15,53C21.7,96,25.08,79.92,28.44,63.89Z"/><path class="cls-27" d="M13.65,83.19c3.84-16.19,18.8-25.38,20.25-43C27,51.19,18.07,54.8,13.53,64.36c2.31-11-1.9-22.58,0-36.06C8.12,36.9,3.81,45.84,5.72,56,7.38,64.76,10.68,73.24,13.65,83.19Z"/><path class="cls-28" d="M44.05,20.55C36.2,29.67,26.24,33.62,21.91,39.78l-.62.53c4.53-8.4,5.93-19.16,8.83-27.87-6.08,3.45-12,8.39-12.67,16.76s-.14,16.55-.14,25.6C24.75,41.86,41.59,37.09,44.05,20.55Z"/><path class="cls-29" d="M107.33.19c2.92,9.27,5.72,17.15,8.52,26a.72.72,0,0,0,.91.46.7.7,0,0,0,.46-.46c2.82-8.87,5.65-16.74,8.6-26Z"/><path class="cls-30" d="M54.49,1.67c-15.11,4.18-25,12.94-25.73,29.82C39.52,21.1,47.31,15.8,54.49,1.67Z"/><path class="cls-31" d="M205.5,140c-6.27,3.16-12.21,7-18.68,10.48,11.7-9.71,8.41-24.67,13.88-36.62a43.94,43.94,0,0,0,1.46-5s-2.24,3.47-2.8,4.23c-2.54,3.9-5.56,7.57-7.51,11.75-3.07,6.59-5.14,13.66-8.18,20.27-2.1,4.58-5.12,8.72-7.56,12.78,21.48,1.83,45.56-14.35,49.78-34.69C221.44,131.71,213.61,135.87,205.5,140Z"/><path class="cls-32" d="M209.44,125.19c4.42-11.94-.86-23.26-1.53-34.88-6.27,15.76-2.29,33.69-10.47,49-.33.6-1.56,3.39-1.56,3.39s1.85-1.36,2.66-2c8.79-6.9,18-13.37,26.25-20.82,7.62-6.85,9.2-16.54,9.08-26.67C229.79,106.88,216.15,113.12,209.44,125.19Z"/><path class="cls-33" d="M183.71,137.68c-13.55,7.6-20.7,24.47-38.5,25.68l-4.51.34c.05.24,4.06,1,4.85,1.11,9.77,1.81,19.48,4.31,29.33,5.26,13.29,1.28,23.58-5.26,32.09-14.94a5.43,5.43,0,0,0,1-2.88c-13.32,12-30.36,7.1-45.6,10.58C175.78,159.61,177.65,146.88,183.71,137.68Z"/><path class="cls-34" d="M220,95.86c.22-12.73-8.67-21.57-12.67-32.41-.56-1.3-1.76-3.32-2.07-3.24s.13,2.7.35,3.68c3.37,16,6.75,32.06,10,47.68,16.15-15.88,23.09-39.08,15-53C232.63,72.55,221.61,82.71,220,95.86Z"/><path class="cls-35" d="M220.56,64.36C216,54.8,207.08,51.17,200.19,40.19c1.45,17.61,16.41,26.8,20.25,43,3-9.94,6.27-18.42,7.93-27.2,1.91-10.14-2.4-19.08-7.81-27.68C222.44,41.78,218.25,53.34,220.56,64.36Z"/><path class="cls-36" d="M212.8,40.31l-.62-.53c-4.33-6.16-14.29-10.11-22.14-19.23,2.46,16.54,19.3,21.31,26.74,34.25,0-9,.52-17.37-.14-25.6S210.05,15.89,204,12.44C206.87,21.19,208.27,31.91,212.8,40.31Z"/><path class="cls-37" d="M179.6,1.67c7.18,14.13,15,19.43,25.73,29.82C204.63,14.61,194.71,5.85,179.6,1.67Z"/><path class="cls-38" d="M170.65,0c-13.16,0-26.34.23-39.51.23-2,0-3.32.79-3.75,1.9-2.72,7.08-5.49,14.85-8.32,23.5a.26.26,0,0,0,.16.32.22.22,0,0,0,.18,0c17.8-8.49,35-16.85,51.52-24.71C171.67.86,171.63,0,170.65,0Z"/><path class="cls-39" d="M94.2,120.45v5.41a.63.63,0,0,0,.63.6H137.9a.61.61,0,0,0,.63-.6v-5.41a.61.61,0,0,0-.63-.6H94.83A.63.63,0,0,0,94.2,120.45Z"/><path class="cls-40" d="M88.16,128.19V134a.63.63,0,0,0,.63.6h55a.61.61,0,0,0,.63-.6v-5.84a.61.61,0,0,0-.63-.6h-55A.63.63,0,0,0,88.16,128.19Z"/><rect class="cls-41" x="80.64" y="135.75" width="71.27" height="7.2" rx="0.63"/><rect class="cls-42" x="94.1" y="39.86" width="44.33" height="4.48" rx="0.63"/><rect class="cls-43" x="91.22" y="34.04" width="50.1" height="4.71" rx="0.63"/><rect class="cls-44" x="98.67" y="28.46" width="35.2" height="4.48" rx="0.63"/><path class="cls-45" d="M121.69,61.11a2.33,2.33,0,0,0,.63.76,1.51,1.51,0,0,0,.91.28,1.54,1.54,0,0,0,1-.32,1.86,1.86,0,0,0,.61-.9,4,4,0,0,0,.2-1.32,5.17,5.17,0,0,0-.12-1.24,3.76,3.76,0,0,0-.38-1.08,2.19,2.19,0,0,0-.64-.75,1.44,1.44,0,0,0-.9-.28,1.57,1.57,0,0,0-1,.32,1.94,1.94,0,0,0-.59.89,3.92,3.92,0,0,0-.2,1.32,6.43,6.43,0,0,0,.12,1.24A5.08,5.08,0,0,0,121.69,61.11Z"/><path class="cls-46" d="M107,59.6h1.31c.08,0,.13,0,.13-.06h0v-.06l-.66-2.31c0-.09-.05-.14-.07-.14s0,0-.06.13l-.79,2.32v.08a.13.13,0,0,0,0,.07Z"/><path class="cls-47" d="M91.22,54.24V64a.63.63,0,0,0,.63.63h48.84a.63.63,0,0,0,.63-.63h0V54.24a.63.63,0,0,0-.63-.63H91.85a.63.63,0,0,0-.63.63Zm37.54,2.23a.72.72,0,0,0-.44-.22.2.2,0,0,1-.23-.2.15.15,0,0,1,.06-.11h2.58q.21,0,.21.15a.12.12,0,0,1-.06.12.48.48,0,0,1-.18.07,1,1,0,0,0-.49.25.72.72,0,0,0-.13.45v1.86a.14.14,0,0,0,0,.09H133c.07,0,.1,0,.1-.14V56.94a.63.63,0,0,0-.12-.44,1,1,0,0,0-.49-.25.73.73,0,0,1-.19-.07.17.17,0,0,1-.06-.12q0-.15.21-.15H135a.11.11,0,0,1,.06.11c0,.1-.08.17-.24.2a.71.71,0,0,0-.43.23,1,1,0,0,0-.1.46v4.53a.86.86,0,0,0,.11.47.77.77,0,0,0,.44.22c.16,0,.23.1.23.19a.11.11,0,0,1-.06.1h-2.6a.17.17,0,0,1-.14,0,.13.13,0,0,1-.06-.1.17.17,0,0,1,.06-.12l.17-.06a1,1,0,0,0,.48-.24.58.58,0,0,0,.15-.45v-2a.08.08,0,0,0-.08,0h-2.86c-.07,0-.11,0-.11.15v1.87a.73.73,0,0,0,.17.47,1.15,1.15,0,0,0,.5.26l.18.06a.12.12,0,0,1,.06.12.1.1,0,0,1-.06.1.19.19,0,0,1-.15,0h-2.66a.17.17,0,0,1-.06-.1c0-.09.08-.16.23-.19a.77.77,0,0,0,.45-.22.66.66,0,0,0,.12-.47V56.91A.75.75,0,0,0,128.76,56.47ZM120.06,58a3.83,3.83,0,0,1,.64-1.11,3,3,0,0,1,1-.78,3.36,3.36,0,0,1,1.43-.29,3.29,3.29,0,0,1,1.21.23,3.25,3.25,0,0,1,1,.67,3,3,0,0,1,1,2.35,3.85,3.85,0,0,1-.21,1.3,3.11,3.11,0,0,1-.63,1.12,3,3,0,0,1-1,.78,3.33,3.33,0,0,1-1.43.29,3.22,3.22,0,0,1-3-1.95,3.59,3.59,0,0,1-.26-1.34A4.62,4.62,0,0,1,120.06,58Zm-6.83-1.52a.85.85,0,0,0-.49-.22.22.22,0,0,1-.25-.21c0-.11,0-.07.07-.1h2.77a.14.14,0,0,1,0,.21l0,0a.37.37,0,0,1-.18.08.9.9,0,0,0-.47.25,1,1,0,0,0-.1.45V58.7a.29.29,0,0,0,0,.13.06.06,0,0,0,.06,0h.25a.86.86,0,0,0,.66-.3,1.92,1.92,0,0,0,.44-.72l.34-.9a5,5,0,0,1,.27-.57,1.43,1.43,0,0,1,.39-.42,1.14,1.14,0,0,1,.62-.15.62.62,0,0,1,.52.19.65.65,0,0,1,.14.44.66.66,0,0,1-.12.41.36.36,0,0,1-.32.18.67.67,0,0,1-.33-.1.66.66,0,0,0-.31-.09.5.5,0,0,0-.31.1.93.93,0,0,0-.26.41l-.28.76a1.09,1.09,0,0,1-.19.37.85.85,0,0,1-.24.26.14.14,0,0,0,0,.09.56.56,0,0,0,0,.08.83.83,0,0,1,.39.24,2.44,2.44,0,0,1,.35.55l.74,1.53c.1.18.2.35.31.51A1.06,1.06,0,0,0,118,62a.72.72,0,0,0,.31.11,2,2,0,0,0,.35,0h.11a.11.11,0,0,1,0,.11.11.11,0,0,1,0,.08l-.06.07a1.05,1.05,0,0,1-.39.17,2.43,2.43,0,0,1-.61.08,1.57,1.57,0,0,1-.84-.21,1.88,1.88,0,0,1-.58-.73l-.85-1.79a2.57,2.57,0,0,0-.26-.41.55.55,0,0,0-.27-.2h-.32a.07.07,0,0,0-.06,0v2.11a1.26,1.26,0,0,0,.05.33.46.46,0,0,0,.17.24,1.12,1.12,0,0,0,.37.17.54.54,0,0,1,.19.07.13.13,0,0,1,.08.12s0,.08-.09.1a.54.54,0,0,1-.18,0h-1.92a4,4,0,0,1-.49,0,.6.6,0,0,1-.19,0,.1.1,0,0,1-.09-.1.34.34,0,0,1,.28-.2.82.82,0,0,0,.47-.22.68.68,0,0,0,.12-.48V56.92A.65.65,0,0,0,113.23,56.47Zm-8.65,5.72.18-.09a1.12,1.12,0,0,0,.47-.25,1,1,0,0,0,.33-.45q.24-.59.45-1.14c.15-.36.28-.72.42-1.08l.39-1.1c.14-.37.28-.77.41-1.18q.1-.32.15-.48l.06-.23.26-.08L108,56a.79.79,0,0,0,.22-.18.75.75,0,0,0,.14-.17h.06l.06.05a.24.24,0,0,1,0,.12.29.29,0,0,1,0,.13c.14.47.28.95.43,1.43s.29,1,.44,1.43.28.92.42,1.35.26.83.37,1.19a1.72,1.72,0,0,0,.21.43.92.92,0,0,0,.28.24,1.51,1.51,0,0,0,.35.14.37.37,0,0,1,.18.08.13.13,0,0,1,.07.14.1.1,0,0,1-.06.09.43.43,0,0,1-.16,0h-2.72a.43.43,0,0,1-.16,0,.1.1,0,0,1-.07-.1.17.17,0,0,1,.07-.14.45.45,0,0,1,.18-.07,1,1,0,0,0,.49-.19.36.36,0,0,0,.12-.36,2.06,2.06,0,0,0-.09-.41l-.12-.49c0-.17-.08-.32-.12-.46a.34.34,0,0,0-.06-.12h-1.94l-.06.14a.43.43,0,0,1-.08.29,1.12,1.12,0,0,0-.11.34c0,.11-.06.23-.09.33l-.06.26a.49.49,0,0,0,.09.42.9.9,0,0,0,.47.25c.17,0,.26.12.26.21a.1.1,0,0,1-.07.09.25.25,0,0,1-.17,0h-2.06a.31.31,0,0,1-.19,0,.12.12,0,0,1-.07-.11.16.16,0,0,1,.13-.17Zm-5.68-1.6a.38.38,0,0,1,.15,0,1.59,1.59,0,0,1,.21.43,2.39,2.39,0,0,0,.56.83,1.22,1.22,0,0,0,.8.33,1,1,0,0,0,.73-.25,1.38,1.38,0,0,0,.42-.64,2.21,2.21,0,0,0,.14-.8,1.75,1.75,0,0,0-.1-.64,1.05,1.05,0,0,0-.3-.52.74.74,0,0,0-.55-.2H100a.52.52,0,0,1-.19-.08.23.23,0,0,1-.08-.18.28.28,0,0,1,.16-.25.92.92,0,0,1,.27-.08H101a.46.46,0,0,0,.38-.18.88.88,0,0,0,.23-.45,1.52,1.52,0,0,0,.08-.56,1.6,1.6,0,0,0-.1-.61,1,1,0,0,0-.34-.49,1,1,0,0,0-.65-.19,1,1,0,0,0-.75.33,2.6,2.6,0,0,0-.42,1,.22.22,0,0,1-.1.18.23.23,0,0,1-.14.09.12.12,0,0,1-.11-.09.43.43,0,0,1,0-.16v-.48a1.88,1.88,0,0,1,.06-.55.87.87,0,0,1,.07-.17.14.14,0,0,1,.09-.08,2,2,0,0,0,.37-.12l.33-.14.36-.12a2.09,2.09,0,0,1,.5,0,2.83,2.83,0,0,1,1,.16,1.67,1.67,0,0,1,.74.51,1.26,1.26,0,0,1,.29.89,1.35,1.35,0,0,1-.25.87,1.51,1.51,0,0,1-.67.52h0v.06a3,3,0,0,1,.57.27,1.55,1.55,0,0,1,.73,1.45,1.65,1.65,0,0,1-.23.89,1.9,1.9,0,0,1-.6.63,2.7,2.7,0,0,1-.83.37,3.52,3.52,0,0,1-.92.12,2.32,2.32,0,0,1-.74-.1,3.28,3.28,0,0,1-.57-.21,1,1,0,0,1-.2-.15A.59.59,0,0,1,99,61.8a3.47,3.47,0,0,0-.1-.62c0-.18,0-.37,0-.55l0,0Z"/></g></g></svg>